<?xml version="1.0" standalone="no"?>
<!DOCTYPE svg PUBLIC "-//W3C//DTD SVG 20010904//EN"
 "http://www.w3.org/TR/2001/REC-SVG-20010904/DTD/svg10.dtd">
<svg version="1.0" xmlns="http://www.w3.org/2000/svg"
 width="419.000000pt" height="107.000000pt" viewBox="0 0 419.000000 107.000000"
 preserveAspectRatio="xMidYMid meet">

<g transform="translate(0.000000,107.000000) scale(0.100000,-0.100000)"
fill="#000000" stroke="none">
<path d="M1696 1014 c-8 -20 -8 -688 0 -708 5 -12 21 -16 75 -16 l69 0 0 85
c0 47 3 85 8 85 4 0 45 -39 92 -85 l85 -85 93 0 92 0 -114 115 -115 116 100
100 c54 55 99 102 99 104 0 3 -40 5 -89 5 l-90 0 -78 -76 -78 -77 -3 227 -2
226 -69 0 c-54 0 -70 -4 -75 -16z"/>
<path d="M2250 655 l0 -365 73 0 72 0 -3 97 c-6 176 17 233 93 233 70 0 90
-55 83 -238 l-3 -92 73 0 72 0 0 165 c0 129 -3 173 -15 196 -23 44 -88 80
-154 86 -49 4 -61 2 -94 -21 -21 -14 -42 -26 -48 -26 -7 0 -9 57 -7 165 l3
165 -72 0 -73 0 0 -365z"/>
<path d="M2830 971 c-21 -20 -30 -38 -30 -61 0 -23 9 -41 30 -61 34 -33 60
-36 101 -12 55 33 55 113 0 146 -41 24 -67 21 -101 -12z"/>
<path d="M3251 715 c-52 -30 -51 -30 -51 -5 0 18 -7 20 -75 20 l-75 0 0 -220
0 -220 74 0 74 0 4 141 c3 140 3 141 31 165 37 31 81 31 112 -1 24 -23 25 -29
25 -165 l0 -140 76 0 75 0 -3 174 c-3 197 -8 211 -83 250 -61 31 -131 32 -184
1z"/>
<path d="M3715 722 c-83 -40 -125 -112 -125 -214 1 -102 47 -177 132 -212 48
-21 127 -20 178 0 48 19 54 16 45 -24 -18 -85 -128 -105 -216 -41 -12 9 -27 6
-72 -16 -31 -14 -57 -30 -57 -35 0 -22 64 -79 111 -100 71 -30 201 -26 270 8
50 24 93 77 109 133 6 19 10 141 10 271 l0 238 -75 0 c-60 0 -75 -3 -75 -15 0
-19 -9 -19 -51 2 -51 26 -136 28 -184 5z m192 -132 c71 -43 49 -160 -33 -176
-74 -14 -124 23 -124 91 0 88 80 132 157 85z"/>
<path d="M2810 510 l0 -220 75 0 75 0 0 220 0 220 -75 0 -75 0 0 -220z"/>
</g>
</svg>
